<svg width="22" height="21" viewBox="0 0 22 21" fill="none" xmlns="http://www.w3.org/2000/svg">
<path d="M20.9041 6.22713L18.6685 4.8753V0.283685C18.6685 0.138489 18.551 0.0211296 18.406 0.0211296H15.0917C14.9469 0.0211296 14.8293 0.138489 14.8293 0.283685V2.55416L10.6675 0.0379524C10.641 0.022131 10.612 0.0119172 10.5822 0.00711066C10.5153 -0.00851052 10.4452 0.00250441 10.3863 0.0379524L0.157455 6.22713C0.0789489 6.27439 0.0308838 6.35991 0.0308838 6.45163V8.61717C0.0308838 8.71129 0.0811519 8.79821 0.162662 8.84487C0.244373 8.89174 0.344709 8.89134 0.425818 8.84387L1.9663 7.94325V18.522H1.23331C1.08832 18.522 0.970956 18.6393 0.970956 18.7845V20.7376C0.970956 20.8826 1.08832 21.0001 1.23331 21.0001H19.8283C19.9733 21.0001 20.0908 20.8826 20.0908 20.7376V18.7845C20.0908 18.6393 19.9733 18.522 19.8283 18.522H19.0953V7.94385L20.636 8.84387C20.6768 8.86771 20.7225 8.87972 20.7684 8.87972C20.8134 8.87972 20.8585 8.86811 20.8989 8.84487C20.9806 8.79821 21.0307 8.71129 21.0307 8.61717V6.45163C21.0307 6.35991 20.9826 6.27439 20.9041 6.22713ZM15.3542 0.54604H18.1434V4.55787L15.3542 2.87159V0.54604ZM19.5657 20.475H1.49587V19.0469H19.5657V20.475ZM12.8933 18.522H8.1683V10.3233H12.8933V18.522ZM18.5704 18.522H13.4184V10.0607C13.4184 9.91552 13.3008 9.79816 13.1559 9.79816H7.90574C7.76095 9.79816 7.64339 9.91552 7.64339 10.0607V18.522H2.49121V7.63624L10.5269 2.93788L18.5704 7.63704V18.522ZM20.5058 8.15995L10.6593 2.40716C10.6184 2.38333 10.5726 2.37131 10.5269 2.37131C10.481 2.37131 10.4354 2.38333 10.3943 2.40716L0.555794 8.15955V6.59943L10.5269 0.566668L20.5058 6.59943V8.15995Z" fill="#31353B"/>
</svg>
